<svg width="1374" height="261" viewBox="0 0 1374 261" fill="none" xmlns="http://www.w3.org/2000/svg">
<g clip-path="url(#clip0_0_231)">
<path d="M308.96 50.53C323.42 50.53 332.68 39.16 332.68 25.27C332.68 11.38 323.42 0 308.96 0C294.5 0 285.24 11.37 285.24 25.26C285.24 39.15 294.5 50.52 308.96 50.52V50.53Z" fill="black"/>
<path d="M126.4 217.26C113.36 223.66 101.31 225.87 88.03 225.87C38.61 225.87 0 185.78 0 136.84C0 87.9 38.61 47.58 88.04 47.58C101.32 47.58 113.12 49.79 126.41 56.18V110.53C119.03 100.2 106 92.58 90.75 92.58C67.14 92.58 47.72 112.75 47.72 136.84C47.72 160.93 66.4 181.1 89.28 181.1C104.28 181.1 119.04 172.25 126.42 161.68V217.25L126.4 217.26Z" fill="black"/>
<path d="M230.91 47.58C282.55 47.58 320.18 87.66 320.18 136.85C320.18 186.04 282.56 226.12 230.91 226.12C179.26 226.12 141.64 186.03 141.64 136.85C141.64 87.67 179.26 47.58 230.91 47.58ZM230.91 181.11C256.24 181.11 272.47 161.2 272.47 136.85C272.47 112.5 256.24 92.59 230.91 92.59C205.58 92.59 189.35 112.51 189.35 136.85C189.35 161.19 205.58 181.11 230.91 181.11Z" fill="black"/>
<path d="M338.86 50.53H376.73L435.75 110.78V50.53H480.26V228.82L383.37 125.78V222.67H338.86V50.53Z" fill="black"/>
<path d="M588.22 47.58C639.86 47.58 677.49 87.66 677.49 136.85C677.49 178.91 650.19 214.31 610.11 223.66V243.7H567.56V223.91C526.74 214.81 498.95 179.4 498.95 136.85C498.95 87.67 536.57 47.58 588.22 47.58ZM567.56 175.95V154.31H610.11V175.21C622.4 167.34 629.78 153.08 629.78 136.84C629.78 112.5 613.55 92.58 588.22 92.58C562.89 92.58 546.66 112.5 546.66 136.84C546.66 153.81 554.28 168.56 567.56 175.94V175.95Z" fill="black"/>
<path d="M741.91 50.53V163.89C741.91 173.48 750.03 181.35 759.62 181.35C769.95 181.35 777.57 173.48 777.57 163.89V50.53H823.31V164.14C823.31 199.06 795.03 226.12 759.37 226.12C723.71 226.12 696.42 199.06 696.42 164.14V50.53H741.91Z" fill="black"/>
<path d="M850.36 50.53H962.01V94.55H896.35V115.95H958.81V156.28H896.35V178.66H962.99V222.68H850.36V50.53Z" fill="black"/>
<path d="M1098 160.21C1114.97 169.55 1121.61 185.54 1121.61 203.98V222.67H1075.62V207.92C1075.62 191.44 1063.81 179.15 1046.35 179.15H1034.3V222.68H988.56V50.53H1057.17C1092.34 50.53 1121.6 79.06 1121.6 113.98C1121.6 135.62 1112.25 151.11 1097.99 160.21H1098ZM1050.78 93.32H1034.3V137.83H1050.78C1065.29 137.83 1074.64 128.73 1074.64 115.7C1074.64 102.67 1065.29 93.32 1050.78 93.32Z" fill="black"/>
<path d="M1184.83 122.02C1177.82 127.9 1167.4 126.88 1161.65 119.75L1065.1 0H1155.11L1221.86 84.24C1221.86 84.24 1233.06 99.44 1252.87 99C1272.68 98.57 1280.86 84.67 1280.86 84.67L1333.4 18.67H1289.04L1238.22 79.03L1226.16 69.04L1280.87 0H1371.31L1295.08 96.4C1295.08 96.4 1278.28 118.11 1254.17 118.11C1230.06 118.11 1211.32 99.22 1206.8 94.66L1147.37 17.37L1103.87 18.67L1184.84 122.01L1184.83 122.02Z" fill="black"/>
<path d="M1254.1 138.83C1261.11 132.95 1271.53 133.97 1277.28 141.1L1373.83 260.84H1283.82L1217.07 176.6C1217.07 176.6 1205.87 161.4 1186.06 161.84C1166.25 162.27 1158.07 176.17 1158.07 176.17L1105.53 242.17H1149.89L1200.71 181.81L1212.77 191.8L1158.07 260.84H1067.63L1143.86 164.44C1143.86 164.44 1160.66 142.73 1184.77 142.73C1208.88 142.73 1227.62 161.62 1232.14 166.18L1291.57 243.47L1335.07 242.17L1254.1 138.83Z" fill="black"/>
</g>
<defs>
<clipPath id="clip0_0_231">
<rect width="1373.83" height="260.84" fill="white"/>
</clipPath>
</defs>
</svg>
